<svg version="1.1" xmlns="http://www.w3.org/2000/svg" xmlns:xlink="http://www.w3.org/1999/xlink" width="467" height="147"><defs/><g><g transform="translate(-14,-22) scale(1,1)"><rect fill="#C0C0C0" stroke="none" x="71" y="39" width="50.8" height="15" opacity="0.2"/></g><g transform="translate(-14,-22) scale(1,1)"><rect fill="#C0C0C0" stroke="none" x="71" y="53" width="127" height="40" opacity="0.2"/></g><g transform="translate(-14,-22) scale(1,1)"><rect fill="#ffffff" stroke="none" x="64" y="47" width="127" height="39"/></g><g transform="translate(-14,-22) scale(1,1)"><path fill="none" stroke="#000000" d="M 64 47 L 191 47 L 191 86 L 64 86 L 64 47 Z Z" stroke-miterlimit="10"/></g><g transform="translate(-14,-22) scale(1,1)"><rect fill="#ffffff" stroke="none" x="64" y="32" width="50.8" height="15"/></g><g transform="translate(-14,-22) scale(1,1)"><path fill="none" stroke="#000000" d="M 64 32 L 114.8 32 L 114.8 47 L 64 47 L 64 32 Z Z" stroke-miterlimit="10"/></g><g transform="translate(-14,-22) scale(1,1)"><rect fill="#ffffff" stroke="none" x="64" y="46" width="127" height="40"/></g><g transform="translate(-14,-22) scale(1,1)"><path fill="none" stroke="#000000" d="M 64 46 L 191 46 L 191 86 L 64 86 L 64 46 Z Z" stroke-miterlimit="10"/></g><g transform="translate(-14,-22) scale(1,1)"><path fill="none" stroke="#000000" d="M 105.8 35 L 99.8 42 L 111.8 42 L 105.8 35" stroke-miterlimit="10"/></g><g transform="translate(-14,-22) scale(1,1)"><g><path fill="none" stroke="none"/><text fill="#000000" stroke="none" font-family="Arial" font-size="13px" font-style="normal" font-weight="bold" text-decoration="none" x="87.5" y="66.5">MercadoPago</text></g></g><g transform="translate(-14,-22) scale(1,1)"><g><path fill="none" stroke="none"/><text fill="#000000" stroke="none" font-family="Arial" font-size="13px" font-style="normal" font-weight="normal" text-decoration="none" x="68.5" y="81.5">(from MercadoPago)</text></g></g><g transform="translate(-14,-22) scale(1,1)"><rect fill="#C0C0C0" stroke="none" x="351" y="63" width="50.80000000000001" height="15" opacity="0.2"/></g><g transform="translate(-14,-22) scale(1,1)"><rect fill="#C0C0C0" stroke="none" x="351" y="77" width="127" height="40" opacity="0.2"/></g><g transform="translate(-14,-22) scale(1,1)"><rect fill="#ffffff" stroke="none" x="344" y="71" width="127" height="39"/></g><g transform="translate(-14,-22) scale(1,1)"><path fill="none" stroke="#000000" d="M 344 71 L 471 71 L 471 110 L 344 110 L 344 71 Z Z" stroke-miterlimit="10"/></g><g transform="translate(-14,-22) scale(1,1)"><rect fill="#ffffff" stroke="none" x="344" y="56" width="50.80000000000001" height="15"/></g><g transform="translate(-14,-22) scale(1,1)"><path fill="none" stroke="#000000" d="M 344 56 L 394.8 56 L 394.8 71 L 344 71 L 344 56 Z Z" stroke-miterlimit="10"/></g><g transform="translate(-14,-22) scale(1,1)"><rect fill="#ffffff" stroke="none" x="344" y="70" width="127" height="40"/></g><g transform="translate(-14,-22) scale(1,1)"><path fill="none" stroke="#000000" d="M 344 70 L 471 70 L 471 110 L 344 110 L 344 70 Z Z" stroke-miterlimit="10"/></g><g transform="translate(-14,-22) scale(1,1)"><path fill="none" stroke="#000000" d="M 385.8 59 L 379.8 66 L 391.8 66 L 385.8 59" stroke-miterlimit="10"/></g><g transform="translate(-14,-22) scale(1,1)"><g><path fill="none" stroke="none"/><text fill="#000000" stroke="none" font-family="Arial" font-size="13px" font-style="normal" font-weight="bold" text-decoration="none" x="375.5" y="90.5">ActiveRest</text></g></g><g transform="translate(-14,-22) scale(1,1)"><g><path fill="none" stroke="none"/><text fill="#000000" stroke="none" font-family="Arial" font-size="13px" font-style="normal" font-weight="normal" text-decoration="none" x="348.5" y="105.5">(from MercadoPago)</text></g></g><g transform="translate(-14,-22) scale(1,1)"><rect fill="#C0C0C0" stroke="none" x="31" y="127" width="22" height="15" opacity="0.2"/></g><g transform="translate(-14,-22) scale(1,1)"><rect fill="#C0C0C0" stroke="none" x="31" y="141" width="55" height="25" opacity="0.2"/></g><g transform="translate(-14,-22) scale(1,1)"><rect fill="#ffffff" stroke="none" x="24" y="135" width="55" height="24"/></g><g transform="translate(-14,-22) scale(1,1)"><path fill="none" stroke="#000000" d="M 24 135 L 79 135 L 79 159 L 24 159 L 24 135 Z Z" stroke-miterlimit="10"/></g><g transform="translate(-14,-22) scale(1,1)"><rect fill="#ffffff" stroke="none" x="24" y="120" width="22" height="15"/></g><g transform="translate(-14,-22) scale(1,1)"><path fill="none" stroke="#000000" d="M 24 120 L 46 120 L 46 135 L 24 135 L 24 120 Z Z" stroke-miterlimit="10"/></g><g transform="translate(-14,-22) scale(1,1)"><rect fill="#ffffff" stroke="none" x="24" y="134" width="55" height="25"/></g><g transform="translate(-14,-22) scale(1,1)"><path fill="none" stroke="#000000" d="M 24 134 L 79 134 L 79 159 L 24 159 L 24 134 Z Z" stroke-miterlimit="10"/></g><g transform="translate(-14,-22) scale(1,1)"><g><path fill="none" stroke="none"/><text fill="#000000" stroke="none" font-family="Arial" font-size="13px" font-style="normal" font-weight="bold" text-decoration="none" x="30" y="154.5">Flavor3</text></g></g><g transform="translate(-14,-22) scale(1,1)"><rect fill="#C0C0C0" stroke="none" x="183" y="127" width="22" height="15" opacity="0.2"/></g><g transform="translate(-14,-22) scale(1,1)"><rect fill="#C0C0C0" stroke="none" x="183" y="141" width="55" height="25" opacity="0.2"/></g><g transform="translate(-14,-22) scale(1,1)"><rect fill="#ffffff" stroke="none" x="176" y="135" width="55" height="24"/></g><g transform="translate(-14,-22) scale(1,1)"><path fill="none" stroke="#000000" d="M 176 135 L 231 135 L 231 159 L 176 159 L 176 135 Z Z" stroke-miterlimit="10"/></g><g transform="translate(-14,-22) scale(1,1)"><rect fill="#ffffff" stroke="none" x="176" y="120" width="22" height="15"/></g><g transform="translate(-14,-22) scale(1,1)"><path fill="none" stroke="#000000" d="M 176 120 L 198 120 L 198 135 L 176 135 L 176 120 Z Z" stroke-miterlimit="10"/></g><g transform="translate(-14,-22) scale(1,1)"><rect fill="#ffffff" stroke="none" x="176" y="134" width="55" height="25"/></g><g transform="translate(-14,-22) scale(1,1)"><path fill="none" stroke="#000000" d="M 176 134 L 231 134 L 231 159 L 176 159 L 176 134 Z Z" stroke-miterlimit="10"/></g><g transform="translate(-14,-22) scale(1,1)"><g><path fill="none" stroke="none"/><text fill="#000000" stroke="none" font-family="Arial" font-size="13px" font-style="normal" font-weight="bold" text-decoration="none" x="182" y="154.5">Flavor1</text></g></g><g transform="translate(-14,-22) scale(1,1)"><rect fill="#C0C0C0" stroke="none" x="111" y="127" width="21.19999999999999" height="15" opacity="0.2"/></g><g transform="translate(-14,-22) scale(1,1)"><rect fill="#C0C0C0" stroke="none" x="111" y="141" width="53" height="25" opacity="0.2"/></g><g transform="translate(-14,-22) scale(1,1)"><rect fill="#ffffff" stroke="none" x="104" y="135" width="53" height="24"/></g><g transform="translate(-14,-22) scale(1,1)"><path fill="none" stroke="#000000" d="M 104 135 L 157 135 L 157 159 L 104 159 L 104 135 Z Z" stroke-miterlimit="10"/></g><g transform="translate(-14,-22) scale(1,1)"><rect fill="#ffffff" stroke="none" x="104" y="120" width="21.200000000000003" height="15"/></g><g transform="translate(-14,-22) scale(1,1)"><path fill="none" stroke="#000000" d="M 104 120 L 125.2 120 L 125.2 135 L 104 135 L 104 120 Z Z" stroke-miterlimit="10"/></g><g transform="translate(-14,-22) scale(1,1)"><rect fill="#ffffff" stroke="none" x="104" y="134" width="53" height="25"/></g><g transform="translate(-14,-22) scale(1,1)"><path fill="none" stroke="#000000" d="M 104 134 L 157 134 L 157 159 L 104 159 L 104 134 Z Z" stroke-miterlimit="10"/></g><g transform="translate(-14,-22) scale(1,1)"><path fill="none" stroke="#000000" d="M 117.2 123 L 117.2 127" stroke-miterlimit="10"/></g><g transform="translate(-14,-22) scale(1,1)"><path fill="none" stroke="#000000" d="M 114.2 131 L 114.2 127 L 120.2 127" stroke-miterlimit="10"/></g><g transform="translate(-14,-22) scale(1,1)"><path fill="none" stroke="#000000" d="M 120.2 131 L 120.2 127 L 114.2 127" stroke-miterlimit="10"/></g><g transform="translate(-14,-22) scale(1,1)"><g><path fill="none" stroke="none"/><text fill="#000000" stroke="none" font-family="Arial" font-size="13px" font-style="normal" font-weight="bold" text-decoration="none" x="110" y="154.5">Shared</text></g></g></g></svg>