<svg version="1.1" xmlns="http://www.w3.org/2000/svg" xmlns:xlink="http://www.w3.org/1999/xlink" width="668" height="612"><defs/><g><g transform="translate(-78,-110) scale(1,1)"><rect fill="#C0C0C0" stroke="none" x="95" y="127" width="259.2" height="15" opacity="0.2"/></g><g transform="translate(-78,-110) scale(1,1)"><rect fill="#C0C0C0" stroke="none" x="95" y="141" width="648" height="578" opacity="0.2"/></g><g transform="translate(-78,-110) scale(1,1)"><rect fill="#ffffff" stroke="none" x="88" y="135" width="648" height="577"/></g><g transform="translate(-78,-110) scale(1,1)"><path fill="none" stroke="#000000" d="M 88 135 L 736 135 L 736 712 L 88 712 L 88 135 Z Z" stroke-miterlimit="10"/></g><g transform="translate(-78,-110) scale(1,1)"><rect fill="#ffffff" stroke="none" x="88" y="120" width="259.2" height="15"/></g><g transform="translate(-78,-110) scale(1,1)"><path fill="none" stroke="#000000" d="M 88 120 L 347.2 120 L 347.2 135 L 88 135 L 88 120 Z Z" stroke-miterlimit="10"/></g><g transform="translate(-78,-110) scale(1,1)"><rect fill="#ffffff" stroke="none" x="88" y="134" width="648" height="578"/></g><g transform="translate(-78,-110) scale(1,1)"><path fill="none" stroke="#000000" d="M 88 134 L 736 134 L 736 712 L 88 712 L 88 134 Z Z" stroke-miterlimit="10"/></g><g transform="translate(-78,-110) scale(1,1)"><g><path fill="none" stroke="none"/><text fill="#000000" stroke="none" font-family="Arial" font-size="13px" font-style="normal" font-weight="bold" text-decoration="none" x="390.5" y="154.5">Flavor3</text></g></g><g transform="translate(-78,-110) scale(1,1)"><rect fill="#C0C0C0" stroke="none" x="359" y="383" width="128" height="44" opacity="0.2"/></g><g transform="translate(-78,-110) scale(1,1)"><rect fill="#ffffff" stroke="none" x="352" y="376" width="128" height="44"/></g><g transform="translate(-78,-110) scale(1,1)"><path fill="none" stroke="#000000" d="M 352 376 L 480 376 L 480 420 L 352 420 L 352 376 Z Z" stroke-miterlimit="10"/></g><g transform="translate(-78,-110) scale(1,1)"><path fill="none" stroke="#000000" d="M 352 401 L 480 401" stroke-miterlimit="10"/></g><g transform="translate(-78,-110) scale(1,1)"><path fill="none" stroke="#000000" d="M 352 411 L 480 411" stroke-miterlimit="10"/></g><g transform="translate(-78,-110) scale(1,1)"><g><path fill="none" stroke="none"/><text fill="#000000" stroke="none" font-family="Arial" font-size="13px" font-style="normal" font-weight="bold" text-decoration="none" x="384.5" y="395.5">Preference</text></g></g><g transform="translate(-78,-110) scale(1,1)"><rect fill="#C0C0C0" stroke="none" x="167" y="559" width="128" height="44" opacity="0.2"/></g><g transform="translate(-78,-110) scale(1,1)"><rect fill="#ffffff" stroke="none" x="160" y="552" width="128" height="44"/></g><g transform="translate(-78,-110) scale(1,1)"><path fill="none" stroke="#000000" d="M 160 552 L 288 552 L 288 596 L 160 596 L 160 552 Z Z" stroke-miterlimit="10"/></g><g transform="translate(-78,-110) scale(1,1)"><path fill="none" stroke="#000000" d="M 160 577 L 288 577" stroke-miterlimit="10"/></g><g transform="translate(-78,-110) scale(1,1)"><path fill="none" stroke="#000000" d="M 160 587 L 288 587" stroke-miterlimit="10"/></g><g transform="translate(-78,-110) scale(1,1)"><g><path fill="none" stroke="none"/><text fill="#000000" stroke="none" font-family="Arial" font-size="13px" font-style="normal" font-weight="bold" text-decoration="none" x="181" y="571.5">MerchantOrder</text></g></g><g transform="translate(-78,-110) scale(1,1)"><rect fill="#C0C0C0" stroke="none" x="356" y="529" width="128" height="44" opacity="0.2"/></g><g transform="translate(-78,-110) scale(1,1)"><rect fill="#ffffff" stroke="none" x="349" y="522" width="128" height="44"/></g><g transform="translate(-78,-110) scale(1,1)"><path fill="none" stroke="#000000" d="M 349 522 L 477 522 L 477 566 L 349 566 L 349 522 Z Z" stroke-miterlimit="10"/></g><g transform="translate(-78,-110) scale(1,1)"><path fill="none" stroke="#000000" d="M 349 547 L 477 547" stroke-miterlimit="10"/></g><g transform="translate(-78,-110) scale(1,1)"><path fill="none" stroke="#000000" d="M 349 557 L 477 557" stroke-miterlimit="10"/></g><g transform="translate(-78,-110) scale(1,1)"><g><path fill="none" stroke="none"/><text fill="#000000" stroke="none" font-family="Arial" font-size="13px" font-style="normal" font-weight="bold" text-decoration="none" x="387" y="541.5">Payment</text></g></g><g transform="translate(-78,-110) scale(1,1)"><rect fill="#C0C0C0" stroke="none" x="356" y="593" width="128" height="44" opacity="0.2"/></g><g transform="translate(-78,-110) scale(1,1)"><rect fill="#ffffff" stroke="none" x="349" y="586" width="128" height="44"/></g><g transform="translate(-78,-110) scale(1,1)"><path fill="none" stroke="#000000" d="M 349 586 L 477 586 L 477 630 L 349 630 L 349 586 Z Z" stroke-miterlimit="10"/></g><g transform="translate(-78,-110) scale(1,1)"><path fill="none" stroke="#000000" d="M 349 611 L 477 611" stroke-miterlimit="10"/></g><g transform="translate(-78,-110) scale(1,1)"><path fill="none" stroke="#000000" d="M 349 621 L 477 621" stroke-miterlimit="10"/></g><g transform="translate(-78,-110) scale(1,1)"><g><path fill="none" stroke="none"/><text fill="#000000" stroke="none" font-family="Arial" font-size="13px" font-style="normal" font-weight="bold" text-decoration="none" x="387.5" y="605.5">Collector</text></g></g><g transform="translate(-78,-110) scale(1,1)"><rect fill="#C0C0C0" stroke="none" x="151" y="383" width="128" height="44" opacity="0.2"/></g><g transform="translate(-78,-110) scale(1,1)"><rect fill="#ffffff" stroke="none" x="144" y="376" width="128" height="44"/></g><g transform="translate(-78,-110) scale(1,1)"><path fill="none" stroke="#000000" d="M 144 376 L 272 376 L 272 420 L 144 420 L 144 376 Z Z" stroke-miterlimit="10"/></g><g transform="translate(-78,-110) scale(1,1)"><path fill="none" stroke="#000000" d="M 144 401 L 272 401" stroke-miterlimit="10"/></g><g transform="translate(-78,-110) scale(1,1)"><path fill="none" stroke="#000000" d="M 144 411 L 272 411" stroke-miterlimit="10"/></g><g transform="translate(-78,-110) scale(1,1)"><g><path fill="none" stroke="none"/><text fill="#000000" stroke="none" font-family="Arial" font-size="13px" font-style="normal" font-weight="bold" text-decoration="none" x="191" y="395.5">Payer</text></g></g><g transform="translate(-78,-110) scale(1,1)"><rect fill="#C0C0C0" stroke="none" x="143" y="463" width="128" height="44" opacity="0.2"/></g><g transform="translate(-78,-110) scale(1,1)"><rect fill="#ffffff" stroke="none" x="136" y="456" width="128" height="44"/></g><g transform="translate(-78,-110) scale(1,1)"><path fill="none" stroke="#000000" d="M 136 456 L 264 456 L 264 500 L 136 500 L 136 456 Z Z" stroke-miterlimit="10"/></g><g transform="translate(-78,-110) scale(1,1)"><path fill="none" stroke="#000000" d="M 136 481 L 264 481" stroke-miterlimit="10"/></g><g transform="translate(-78,-110) scale(1,1)"><path fill="none" stroke="#000000" d="M 136 491 L 264 491" stroke-miterlimit="10"/></g><g transform="translate(-78,-110) scale(1,1)"><g><path fill="none" stroke="none"/><text fill="#000000" stroke="none" font-family="Arial" font-size="13px" font-style="normal" font-weight="bold" text-decoration="none" x="187" y="475.5">Item</text></g></g><g transform="translate(-78,-110) scale(1,1)"><rect fill="#C0C0C0" stroke="none" x="572" y="543" width="112" height="44" opacity="0.2"/></g><g transform="translate(-78,-110) scale(1,1)"><rect fill="#ffffff" stroke="none" x="565" y="536" width="112" height="44"/></g><g transform="translate(-78,-110) scale(1,1)"><path fill="none" stroke="#000000" d="M 565 536 L 677 536 L 677 580 L 565 580 L 565 536 Z Z" stroke-miterlimit="10"/></g><g transform="translate(-78,-110) scale(1,1)"><path fill="none" stroke="#000000" d="M 565 561 L 677 561" stroke-miterlimit="10"/></g><g transform="translate(-78,-110) scale(1,1)"><path fill="none" stroke="#000000" d="M 565 571 L 677 571" stroke-miterlimit="10"/></g><g transform="translate(-78,-110) scale(1,1)"><g><path fill="none" stroke="none"/><text fill="#000000" stroke="none" font-family="Arial" font-size="13px" font-style="normal" font-weight="bold" text-decoration="none" x="588.5" y="555.5">Notification</text></g></g><g transform="translate(-78,-110) scale(1,1)"><path fill="none" stroke="#000000" d="M 264 478 L 416 478 L 416 420" stroke-miterlimit="10"/></g><g transform="translate(-78,-110) scale(1,1)"><g><path fill="none" stroke="none"/><text fill="#000000" stroke="none" font-family="Arial" font-size="13px" font-style="normal" font-weight="normal" text-decoration="none" x="275" y="497">0..*</text></g></g><g transform="translate(-78,-110) scale(1,1)"><g><path fill="none" stroke="none"/><text fill="#000000" stroke="none" font-family="Arial" font-size="13px" font-style="normal" font-weight="normal" text-decoration="none" x="425" y="448">1</text></g></g><g transform="translate(-78,-110) scale(1,1)"><path fill="none" stroke="#000000" d="M 416 332 L 416 376" stroke-miterlimit="10"/></g><g transform="translate(-78,-110) scale(1,1)"><path fill="none" stroke="#000000" d="M 272 398 L 352 398" stroke-miterlimit="10"/></g><g transform="translate(-78,-110) scale(1,1)"><rect fill="#C0C0C0" stroke="none" x="359" y="295" width="128" height="44" opacity="0.2"/></g><g transform="translate(-78,-110) scale(1,1)"><rect fill="#ffffff" stroke="none" x="352" y="288" width="128" height="44"/></g><g transform="translate(-78,-110) scale(1,1)"><path fill="none" stroke="#000000" d="M 352 288 L 480 288 L 480 332 L 352 332 L 352 288 Z Z" stroke-miterlimit="10"/></g><g transform="translate(-78,-110) scale(1,1)"><path fill="none" stroke="#000000" d="M 352 313 L 480 313" stroke-miterlimit="10"/></g><g transform="translate(-78,-110) scale(1,1)"><path fill="none" stroke="#000000" d="M 352 323 L 480 323" stroke-miterlimit="10"/></g><g transform="translate(-78,-110) scale(1,1)"><g><path fill="none" stroke="none"/><text fill="#000000" stroke="none" font-family="Arial" font-size="13px" font-style="normal" font-weight="bold" text-decoration="none" x="388.5" y="307.5">Shipment</text></g></g><g transform="translate(-78,-110) scale(1,1)"><rect fill="#C0C0C0" stroke="none" x="580" y="313" width="109" height="59" opacity="0.2"/></g><g transform="translate(-78,-110) scale(1,1)"><rect fill="#ffffff" stroke="none" x="573" y="306" width="109" height="59"/></g><g transform="translate(-78,-110) scale(1,1)"><path fill="none" stroke="#000000" d="M 573 306 L 682 306 L 682 365 L 573 365 L 573 306 Z Z" stroke-miterlimit="10"/></g><g transform="translate(-78,-110) scale(1,1)"><path fill="none" stroke="#000000" d="M 573 346 L 682 346" stroke-miterlimit="10"/></g><g transform="translate(-78,-110) scale(1,1)"><path fill="none" stroke="#000000" d="M 573 356 L 682 356" stroke-miterlimit="10"/></g><g transform="translate(-78,-110) scale(1,1)"><g><path fill="none" stroke="none"/><text fill="#000000" stroke="none" font-family="Arial" font-size="13px" font-style="normal" font-weight="bold" text-decoration="none" x="580" y="325.5">PaymentMethod</text></g></g><g transform="translate(-78,-110) scale(1,1)"><g><path fill="none" stroke="none"/><text fill="#000000" stroke="none" font-family="Arial" font-size="13px" font-style="normal" font-weight="normal" text-decoration="none" x="588" y="340.5">(from Shared)</text></g></g><g transform="translate(-78,-110) scale(1,1)"><rect fill="#C0C0C0" stroke="none" x="591" y="412" width="88" height="59" opacity="0.2"/></g><g transform="translate(-78,-110) scale(1,1)"><rect fill="#ffffff" stroke="none" x="584" y="405" width="88" height="59"/></g><g transform="translate(-78,-110) scale(1,1)"><path fill="none" stroke="#000000" d="M 584 405 L 672 405 L 672 464 L 584 464 L 584 405 Z Z" stroke-miterlimit="10"/></g><g transform="translate(-78,-110) scale(1,1)"><path fill="none" stroke="#000000" d="M 584 445 L 672 445" stroke-miterlimit="10"/></g><g transform="translate(-78,-110) scale(1,1)"><path fill="none" stroke="#000000" d="M 584 455 L 672 455" stroke-miterlimit="10"/></g><g transform="translate(-78,-110) scale(1,1)"><g><path fill="none" stroke="none"/><text fill="#000000" stroke="none" font-family="Arial" font-size="13px" font-style="normal" font-weight="bold" text-decoration="none" x="602" y="424.5">Currency</text></g></g><g transform="translate(-78,-110) scale(1,1)"><g><path fill="none" stroke="none"/><text fill="#000000" stroke="none" font-family="Arial" font-size="13px" font-style="normal" font-weight="normal" text-decoration="none" x="588.5" y="439.5">(from Shared)</text></g></g><g transform="translate(-78,-110) scale(1,1)"><rect fill="#C0C0C0" stroke="none" x="575" y="223" width="120" height="59" opacity="0.2"/></g><g transform="translate(-78,-110) scale(1,1)"><rect fill="#ffffff" stroke="none" x="568" y="216" width="120" height="59"/></g><g transform="translate(-78,-110) scale(1,1)"><path fill="none" stroke="#000000" d="M 568 216 L 688 216 L 688 275 L 568 275 L 568 216 Z Z" stroke-miterlimit="10"/></g><g transform="translate(-78,-110) scale(1,1)"><path fill="none" stroke="#000000" d="M 568 256 L 688 256" stroke-miterlimit="10"/></g><g transform="translate(-78,-110) scale(1,1)"><path fill="none" stroke="#000000" d="M 568 266 L 688 266" stroke-miterlimit="10"/></g><g transform="translate(-78,-110) scale(1,1)"><g><path fill="none" stroke="none"/><text fill="#000000" stroke="none" font-family="Arial" font-size="13px" font-style="normal" font-weight="bold" text-decoration="none" x="576.5" y="235.5">IdentificationType</text></g></g><g transform="translate(-78,-110) scale(1,1)"><g><path fill="none" stroke="none"/><text fill="#000000" stroke="none" font-family="Arial" font-size="13px" font-style="normal" font-weight="normal" text-decoration="none" x="587.5" y="250.5">(from Flavor1)</text></g></g></g></svg>