<svg version="1.1" xmlns="http://www.w3.org/2000/svg" xmlns:xlink="http://www.w3.org/1999/xlink" width="708" height="476"><defs/><g><g transform="translate(-38,-94) scale(1,1)"><rect fill="#C0C0C0" stroke="none" x="55" y="111" width="275.2" height="15" opacity="0.2"/></g><g transform="translate(-38,-94) scale(1,1)"><rect fill="#C0C0C0" stroke="none" x="55" y="125" width="688" height="442" opacity="0.2"/></g><g transform="translate(-38,-94) scale(1,1)"><rect fill="#ffffff" stroke="none" x="48" y="119" width="688" height="441"/></g><g transform="translate(-38,-94) scale(1,1)"><path fill="none" stroke="#000000" d="M 48 119 L 736 119 L 736 560 L 48 560 L 48 119 Z Z" stroke-miterlimit="10"/></g><g transform="translate(-38,-94) scale(1,1)"><rect fill="#ffffff" stroke="none" x="48" y="104" width="275.2" height="15"/></g><g transform="translate(-38,-94) scale(1,1)"><path fill="none" stroke="#000000" d="M 48 104 L 323.2 104 L 323.2 119 L 48 119 L 48 104 Z Z" stroke-miterlimit="10"/></g><g transform="translate(-38,-94) scale(1,1)"><rect fill="#ffffff" stroke="none" x="48" y="118" width="688" height="442"/></g><g transform="translate(-38,-94) scale(1,1)"><path fill="none" stroke="#000000" d="M 48 118 L 736 118 L 736 560 L 48 560 L 48 118 Z Z" stroke-miterlimit="10"/></g><g transform="translate(-38,-94) scale(1,1)"><g><path fill="none" stroke="none"/><text fill="#000000" stroke="none" font-family="Arial" font-size="13px" font-style="normal" font-weight="normal" text-decoration="none" x="371" y="136.5">«Gem»</text></g></g><g transform="translate(-38,-94) scale(1,1)"><g><path fill="none" stroke="none"/><text fill="#000000" stroke="none" font-family="Arial" font-size="13px" font-style="normal" font-weight="bold" text-decoration="none" x="356" y="151.5">ActiveREST</text></g></g><g transform="translate(-38,-94) scale(1,1)"><path fill="none" stroke="#000000" d="M 363 400 L 416 400" stroke-miterlimit="10"/></g><g transform="translate(-38,-94) scale(1,1)"><path fill="#000000" stroke="none" d="M 405.83732514237585 404.209517756016 L 416 400 L 405.83732514237585 395.790482243984 L 394 400"/></g><g transform="translate(-38,-94) scale(1,1)"><path fill="none" stroke="#000000" d="M 405.83732514237585 404.209517756016 L 416 400 L 405.83732514237585 395.790482243984 L 394 400 L 405.83732514237585 404.209517756016" stroke-miterlimit="10"/></g><g transform="translate(-38,-94) scale(1,1)"><rect fill="#C0C0C0" stroke="none" x="87" y="167" width="251" height="145" opacity="0.2"/></g><g transform="translate(-38,-94) scale(1,1)"><rect fill="#ffffff" stroke="none" x="80" y="160" width="251" height="145"/></g><g transform="translate(-38,-94) scale(1,1)"><path fill="none" stroke="#000000" d="M 80 160 L 331 160 L 331 305 L 80 305 L 80 160 Z Z" stroke-miterlimit="10"/></g><g transform="translate(-38,-94) scale(1,1)"><path fill="none" stroke="#000000" d="M 80 198 L 331 198" stroke-miterlimit="10"/></g><g transform="translate(-38,-94) scale(1,1)"><path fill="none" stroke="#000000" d="M 80 208 L 331 208" stroke-miterlimit="10"/></g><g transform="translate(-38,-94) scale(1,1)"><g><path fill="none" stroke="none"/><text fill="#000000" stroke="none" font-family="Arial" font-size="13px" font-style="normal" font-weight="normal" text-decoration="none" x="177.5" y="177.5">«module»</text></g></g><g transform="translate(-38,-94) scale(1,1)"><g><path fill="none" stroke="none"/><text fill="#000000" stroke="none" font-family="Arial" font-size="13px" font-style="normal" font-weight="bold" text-decoration="none" x="175.5" y="192.5">RestClient</text></g></g><g transform="translate(-38,-94) scale(1,1)"><g><path fill="none" stroke="none"/><text fill="#000000" stroke="none" font-family="Arial" font-size="13px" font-style="normal" font-weight="normal" text-decoration="none" x="85" y="225.5">+config(&amp;block)</text></g></g><g transform="translate(-38,-94) scale(1,1)"><g><path fill="none" stroke="none"/><text fill="#000000" stroke="none" font-family="Arial" font-size="13px" font-style="normal" font-weight="normal" text-decoration="none" x="85" y="240.5">+included(base)</text><path fill="none" stroke="#000000" d="M 85 240.5 L 177 240.5" stroke-miterlimit="10"/></g></g><g transform="translate(-38,-94) scale(1,1)"><g><path fill="none" stroke="none"/><text fill="#000000" stroke="none" font-family="Arial" font-size="13px" font-style="normal" font-weight="normal" text-decoration="none" x="85" y="255.5">+set_http_param(param, value)</text></g></g><g transform="translate(-38,-94) scale(1,1)"><g><path fill="none" stroke="none"/><text fill="#000000" stroke="none" font-family="Arial" font-size="13px" font-style="normal" font-weight="normal" text-decoration="none" x="85" y="270.5">+http_param(param, value)</text></g></g><g transform="translate(-38,-94) scale(1,1)"><g><path fill="none" stroke="none"/><text fill="#000000" stroke="none" font-family="Arial" font-size="13px" font-style="normal" font-weight="normal" text-decoration="none" x="85" y="285.5">+get(slug = "", params = {}, _class = self)</text></g></g><g transform="translate(-38,-94) scale(1,1)"><g><path fill="none" stroke="none"/><text fill="#000000" stroke="none" font-family="Arial" font-size="13px" font-style="normal" font-weight="normal" text-decoration="none" x="85" y="300.5">+post(slug = "", data = {}, _class = self)</text></g></g><g transform="translate(-38,-94) scale(1,1)"><path fill="none" stroke="#000000" d="M 331 208 L 568 208 L 568 280" stroke-miterlimit="10"/></g><g transform="translate(-38,-94) scale(1,1)"><path fill="#000000" stroke="none" d="M 563.790482243984 269.83732514237585 L 568 280 L 572.209517756016 269.83732514237585 L 568 258"/></g><g transform="translate(-38,-94) scale(1,1)"><path fill="none" stroke="#000000" d="M 563.790482243984 269.83732514237585 L 568 280 L 572.209517756016 269.83732514237585 L 568 258 L 563.790482243984 269.83732514237585" stroke-miterlimit="10"/></g><g transform="translate(-38,-94) scale(1,1)"><rect fill="#C0C0C0" stroke="none" x="423" y="287" width="299" height="216" opacity="0.2"/></g><g transform="translate(-38,-94) scale(1,1)"><rect fill="#ffffff" stroke="none" x="416" y="280" width="299" height="216"/></g><g transform="translate(-38,-94) scale(1,1)"><path fill="none" stroke="#000000" d="M 416 280 L 715 280 L 715 496 L 416 496 L 416 280 Z Z" stroke-miterlimit="10"/></g><g transform="translate(-38,-94) scale(1,1)"><path fill="none" stroke="#000000" d="M 416 318 L 715 318" stroke-miterlimit="10"/></g><g transform="translate(-38,-94) scale(1,1)"><path fill="none" stroke="#000000" d="M 416 328 L 715 328" stroke-miterlimit="10"/></g><g transform="translate(-38,-94) scale(1,1)"><g><path fill="none" stroke="none"/><text fill="#000000" stroke="none" font-family="Arial" font-size="13px" font-style="normal" font-weight="normal" text-decoration="none" x="537.5" y="297.5">«module»</text></g></g><g transform="translate(-38,-94) scale(1,1)"><g><path fill="none" stroke="none"/><text fill="#000000" stroke="none" font-family="Arial" font-size="13px" font-style="normal" font-weight="bold" text-decoration="none" x="529.5" y="312.5">ActiveREST</text></g></g><g transform="translate(-38,-94) scale(1,1)"><g><path fill="none" stroke="none"/><text fill="#000000" stroke="none" font-family="Arial" font-size="13px" font-style="normal" font-weight="normal" text-decoration="none" x="421" y="345.5">+extended(base: Class)</text><path fill="none" stroke="#000000" d="M 421 345.5 L 559 345.5" stroke-miterlimit="10"/></g></g><g transform="translate(-38,-94) scale(1,1)"><g><path fill="none" stroke="none"/><text fill="#000000" stroke="none" font-family="Arial" font-size="13px" font-style="normal" font-weight="normal" text-decoration="none" x="421" y="360.5">-method_missing(method: String, args[*], &amp;block)</text><path fill="none" stroke="#000000" d="M 421 360.5 L 707 360.5" stroke-miterlimit="10"/></g></g><g transform="translate(-38,-94) scale(1,1)"><g><path fill="none" stroke="none"/><text fill="#000000" stroke="none" font-family="Arial" font-size="13px" font-style="normal" font-weight="normal" text-decoration="none" x="421" y="375.5">+reset()</text><path fill="none" stroke="#000000" d="M 421 375.5 L 466 375.5" stroke-miterlimit="10"/></g></g><g transform="translate(-38,-94) scale(1,1)"><g><path fill="none" stroke="none"/><text fill="#000000" stroke="none" font-family="Arial" font-size="13px" font-style="normal" font-weight="normal" text-decoration="none" x="421" y="390.5">+populate_from_api()</text><path fill="none" stroke="#000000" d="M 421 390.5 L 543 390.5" stroke-miterlimit="10"/></g></g><g transform="translate(-38,-94) scale(1,1)"><g><path fill="none" stroke="none"/><text fill="#000000" stroke="none" font-family="Arial" font-size="13px" font-style="normal" font-weight="normal" text-decoration="none" x="421" y="405.5">+build_object()</text><path fill="none" stroke="#000000" d="M 421 405.5 L 506 405.5" stroke-miterlimit="10"/></g></g><g transform="translate(-38,-94) scale(1,1)"><g><path fill="none" stroke="none"/><text fill="#000000" stroke="none" font-family="Arial" font-size="13px" font-style="normal" font-weight="normal" text-decoration="none" x="421" y="420.5">+append()</text><path fill="none" stroke="#000000" d="M 421 420.5 L 479 420.5" stroke-miterlimit="10"/></g></g><g transform="translate(-38,-94) scale(1,1)"><g><path fill="none" stroke="none"/><text fill="#000000" stroke="none" font-family="Arial" font-size="13px" font-style="normal" font-weight="normal" text-decoration="none" x="421" y="435.5">+all()</text><path fill="none" stroke="#000000" d="M 421 435.5 L 450 435.5" stroke-miterlimit="10"/></g></g><g transform="translate(-38,-94) scale(1,1)"><g><path fill="none" stroke="none"/><text fill="#000000" stroke="none" font-family="Arial" font-size="13px" font-style="normal" font-weight="normal" text-decoration="none" x="421" y="450.5">+has_crud_rest_methods(opts = {})</text><path fill="none" stroke="#000000" d="M 421 450.5 L 625 450.5" stroke-miterlimit="10"/></g></g><g transform="translate(-38,-94) scale(1,1)"><rect fill="#C0C0C0" stroke="none" x="71" y="375" width="299" height="145" opacity="0.2"/></g><g transform="translate(-38,-94) scale(1,1)"><rect fill="#ffffff" stroke="none" x="64" y="368" width="299" height="145"/></g><g transform="translate(-38,-94) scale(1,1)"><path fill="none" stroke="#000000" d="M 64 368 L 363 368 L 363 513 L 64 513 L 64 368 Z Z" stroke-miterlimit="10"/></g><g transform="translate(-38,-94) scale(1,1)"><path fill="none" stroke="#000000" d="M 64 393 L 363 393" stroke-miterlimit="10"/></g><g transform="translate(-38,-94) scale(1,1)"><path fill="none" stroke="#000000" d="M 64 416 L 363 416" stroke-miterlimit="10"/></g><g transform="translate(-38,-94) scale(1,1)"><g><path fill="none" stroke="none"/><text fill="#000000" stroke="none" font-family="Arial" font-size="13px" font-style="normal" font-weight="bold" text-decoration="none" x="198.5" y="387.5">Base</text></g></g><g transform="translate(-38,-94) scale(1,1)"><g><path fill="none" stroke="none"/><text fill="#000000" stroke="none" font-family="Arial" font-size="13px" font-style="normal" font-weight="normal" text-decoration="none" x="69" y="410.5">+@attrs: Hash</text></g></g><g transform="translate(-38,-94) scale(1,1)"><g><path fill="none" stroke="none"/><text fill="#000000" stroke="none" font-family="Arial" font-size="13px" font-style="normal" font-weight="normal" text-decoration="none" x="69" y="433.5">+initialize()</text></g></g><g transform="translate(-38,-94) scale(1,1)"><g><path fill="none" stroke="none"/><text fill="#000000" stroke="none" font-family="Arial" font-size="13px" font-style="normal" font-weight="normal" text-decoration="none" x="69" y="448.5">-inherit (sub_class: Class)</text><path fill="none" stroke="#000000" d="M 69 448.5 L 220 448.5" stroke-miterlimit="10"/></g></g><g transform="translate(-38,-94) scale(1,1)"><g><path fill="none" stroke="none"/><text fill="#000000" stroke="none" font-family="Arial" font-size="13px" font-style="normal" font-weight="normal" text-decoration="none" x="69" y="463.5">+to_json(options: Hash = nil)</text></g></g><g transform="translate(-38,-94) scale(1,1)"><g><path fill="none" stroke="none"/><text fill="#000000" stroke="none" font-family="Arial" font-size="13px" font-style="normal" font-weight="normal" text-decoration="none" x="69" y="478.5">+set_variable(k: String, v: Object)</text></g></g><g transform="translate(-38,-94) scale(1,1)"><g><path fill="none" stroke="none"/><text fill="#000000" stroke="none" font-family="Arial" font-size="13px" font-style="normal" font-weight="normal" text-decoration="none" x="69" y="493.5">+save()</text></g></g><g transform="translate(-38,-94) scale(1,1)"><g><path fill="none" stroke="none"/><text fill="#000000" stroke="none" font-family="Arial" font-size="13px" font-style="normal" font-weight="normal" text-decoration="none" x="69" y="508.5">-method_missing(method: String, args[*], &amp;block)</text></g></g><g transform="translate(-38,-94) scale(1,1)"><path fill="none" stroke="#000000" d="M 208 368 L 208 305" stroke-miterlimit="10" stroke-dasharray="3"/></g><g transform="translate(-38,-94) scale(1,1)"><path fill="none" stroke="#000000" d="M 212.209517756016 315.16267485762415 L 208 305 L 203.790482243984 315.16267485762415" stroke-miterlimit="10"/></g><g transform="translate(-38,-94) scale(1,1)"><path fill="none" stroke="#000000" d="M 363 456 L 416 456" stroke-miterlimit="10" stroke-dasharray="3"/></g><g transform="translate(-38,-94) scale(1,1)"><path fill="none" stroke="#000000" d="M 405.83732514237585 460.209517756016 L 416 456 L 405.83732514237585 451.790482243984" stroke-miterlimit="10"/></g></g></svg>